M48
; DRILL file {KiCad 5.1.5-52549c5~84~ubuntu18.04.1} date Sun 08 Dec 2024 08:31:36 PM -03
; FORMAT={-:-/ absolute / metric / decimal}
; #@! TF.CreationDate,2024-12-08T20:31:36-03:00
; #@! TF.GenerationSoftware,Kicad,Pcbnew,5.1.5-52549c5~84~ubuntu18.04.1
FMAT,2
METRIC
T1C1.000
T2C3.000
%
G90
G05
T1
X21.65Y-31.25
X21.65Y-34.35
X24.5Y-29.75
X24.5Y-32.75
X39.25Y-29.75
X41.75Y-32.75
X44.75Y-31.25
X51.0Y-34.5
X33.5Y-2.17
X33.5Y-4.71
X33.5Y-7.25
X17.0Y-24.25
X19.54Y-24.25
X33.5Y-20.0
X33.5Y-22.54
X30.68Y-42.25
X33.22Y-42.25
X35.76Y-42.25
X38.3Y-42.25
X40.84Y-42.25
X43.38Y-42.25
X45.92Y-42.25
X48.46Y-42.25
X51.0Y-42.25
T2
X59.0Y-3.25
X59.0Y-44.25
X2.5Y-3.25
X2.5Y-44.25
T0
M30
